# File created by Blade
# Date/Time:  Tue Jan 27 17:16:36 2015
#---------------------------------------------------------
:version 1.10
:name HOM
:units
  mass 1.0
  length 1.000000
  angle deg
:documentation
     Acclaim Skeleton File
:root
   axis xyz
   order TX TY TZ RX RY RZ
   position 0.000000 0.000000 0.000000
   orientation 0 0 0
:bonedata
   begin
      id 1
      name Spine_dum
      direction 0.000000 1.000000 0.000000
      length 7.539951
      axis 0.0 0.0 0.0 xyz
   end
   begin
      id 2
      name LeftUpLeg_dum
      direction 1.000000 0.000000 0.000000
      length 3.345476
      axis 0.0 0.0 0.0 xyz
   end
   begin
      id 3
      name RightUpLeg_dum
      direction -1.000000 0.000000 0.000000
      length 3.345476
      axis 0.0 0.0 0.0 xyz
   end
   begin
      id 4
      name Spine
      direction 0.000000 1.000000 0.000000
      length 0.000000
      axis 0.0 0.0 0.0 xyz
      dof rx ry rz
   end
   begin
      id 5
      name Spine_dum1
      direction 0.000000 1.000000 0.000000
      length 15.093809
      axis 0.0 0.0 0.0 xyz
   end
   begin
      id 6
      name Spine_dum2
      direction 0.000000 1.000000 0.000000
      length 9.738928
      axis 0.0 0.0 0.0 xyz
   end
   begin
      id 7
      name Spine_dum3
      direction 0.000000 1.000000 0.000000
      length 9.738928
      axis 0.0 0.0 0.0 xyz
   end
   begin
      id 8
      name Head
      direction 0.000000 1.000000 0.000000
      length 4.527550
      axis 0.0 0.0 0.0 xyz
      dof rx ry rz
   end
   begin
      id 9
      name LeftShoulder
      direction 1.000000 0.000000 0.000000
      length 7.084015
      axis 0.0 0.0 -90.0 xyz
      dof rx ry rz
   end
   begin
      id 10
      name LeftArm
      direction 1.000000 0.000000 0.000000
      length 10.259319
      axis 0.0 0.0 -90.0 xyz
      dof rx ry rz
   end
   begin
      id 11
      name LeftForeArm
      direction 1.000000 0.000000 0.000000
      length 9.896984
      axis 0.0 0.0 -90.0 xyz
      dof ry rz rx
   end
   begin
      id 12
      name LeftHand
      direction 0.000000 0.000000 0.000000
      length 0.000000
      axis 0.0 0.0 -90.0 xyz
      dof rx ry rz
   end
   begin
      id 13
      name LeftHand_dum1
      direction 0.000000 0.000000 0.000000
      length 0.000000
      axis 0.0 0.0 -90.0 xyz
   end
   begin
      id 14
      name LeftHand_dum2
      direction 1.000000 0.000000 0.000000
      length 3.937000
      axis 0.0 0.0 -90.0 xyz
   end
   begin
      id 15
      name LeftHandThumb1
      direction 0.000000 0.000000 1.000000
      length 3.937000
      axis 0.0 0.0 -90.0 xyz
      dof rx rz ry
   end
   begin
      id 16
      name RightShoulder
      direction -1.000000 0.000000 0.000000
      length 7.084015
      axis 0.0 0.0 90.0 xyz
      dof rx ry rz
   end
   begin
      id 17
      name RightArm
      direction -1.000000 0.000000 0.000000
      length 10.259319
      axis 0.0 0.0 90.0 xyz
      dof rx ry rz
   end
   begin
      id 18
      name RightForeArm
      direction -1.000000 0.000000 0.000000
      length 9.896984
      axis 0.0 0.0 90.0 xyz
      dof ry rz rx
   end
   begin
      id 19
      name RightHand
      direction 0.000000 0.000000 0.000000
      length 0.000000
      axis 0.0 0.0 90.0 xyz
      dof rx ry rz
   end
   begin
      id 20
      name RightHand_dum1
      direction 0.000000 0.000000 0.000000
      length 0.000000
      axis 0.0 0.0 90.0 xyz
   end
   begin
      id 21
      name RightHand_dum2
      direction -1.000000 0.000000 0.000000
      length 3.937000
      axis 0.0 0.0 90.0 xyz
   end
   begin
      id 22
      name RightHandThumb1
      direction 0.000000 0.000000 1.000000
      length 3.937000
      axis 0.0 0.0 90.0 xyz
      dof rx rz ry
   end
   begin
      id 23
      name LeftUpLeg
      direction 0.000000 -1.000000 0.000000
      length 19.114733
      axis 0.0 0.0 0.0 xyz
      dof rx ry rz
   end
   begin
      id 24
      name LeftLeg
      direction 0.000000 -1.000000 0.000000
      length 16.045604
      axis 0.0 0.0 0.0 xyz
      dof rx ry rz
   end
   begin
      id 25
      name LeftFoot
      direction 0.000000 -0.258819 0.965926
      length 5.543155
      axis 15.0 0.0 0.0 xyz
      dof rx ry rz
   end
   begin
      id 26
      name LeftToeBase
      direction 0.000000 0.000000 1.000000
      length 2.952750
      axis 0.0 0.0 0.0 xyz
      dof rx ry rz
   end
   begin
      id 27
      name RightUpLeg
      direction 0.000000 -1.000000 0.000000
      length 19.114733
      axis 0.0 0.0 0.0 xyz
      dof rx ry rz
   end
   begin
      id 28
      name RightLeg
      direction 0.000000 -1.000000 0.000000
      length 16.045604
      axis 0.0 0.0 0.0 xyz
      dof rx ry rz
   end
   begin
      id 29
      name RightFoot
      direction 0.000000 -0.258819 0.965926
      length 5.543155
      axis 15.0 0.0 0.0 xyz
      dof rx ry rz
   end
   begin
      id 30
      name RightToeBase
      direction 0.000000 0.000000 1.000000
      length 2.952750
      axis 0.0 0.0 0.0 xyz
      dof rx ry rz
   end
:hierarchy
   begin
      root Spine_dum LeftUpLeg_dum RightUpLeg_dum
      Spine_dum Spine
      LeftUpLeg_dum LeftUpLeg
      RightUpLeg_dum RightUpLeg
      Spine Spine_dum1 Spine_dum2 Spine_dum3
      Spine_dum1 Head
      Spine_dum2 LeftShoulder
      Spine_dum3 RightShoulder
      LeftShoulder LeftArm
      LeftArm LeftForeArm
      LeftForeArm LeftHand
      LeftHand LeftHand_dum1 LeftHand_dum2
      LeftHand_dum1 LeftHandThumb1
      RightShoulder RightArm
      RightArm RightForeArm
      RightForeArm RightHand
      RightHand RightHand_dum1 RightHand_dum2
      RightHand_dum1 RightHandThumb1
      LeftUpLeg LeftLeg
      LeftLeg LeftFoot
      LeftFoot LeftToeBase
      RightUpLeg RightLeg
      RightLeg RightFoot
      RightFoot RightToeBase
   end

# File created by Blade
# Date/Time:  Tue Jan 27 17:16:27 2015
# Frame Rate: 120.000 fps
#------------------------------------------------------
:FULLY-SPECIFIED
:DEGREES
2190
root -3.835254 36.408945 1.663325 11.772667 43.622062 18.473621
Spine 13.471821 -0.656145 -11.136645
Head -4.019570 -0.886699 2.871368
LeftShoulder 6.175259 -19.316313 8.585888
LeftArm 17.420242 -15.883717 -40.974129
LeftForeArm 4.162034 -0.000000 52.546739
LeftHand -11.703498 -0.000000 53.057648
LeftHandThumb1 -26.253704 0.000000 33.147579
RightShoulder -2.366322 -14.720109 -0.923954
RightArm 8.377416 -10.371216 50.953220
RightForeArm -169.441313 -0.000000 29.261982
RightHand 0.261994 -0.000000 4.624668
RightHandThumb1 -24.326973 -0.000000 -32.862282
LeftUpLeg -77.498897 40.087961 0.976028
LeftLeg 46.686660 -0.000000 -0.000000
LeftFoot -12.101256 7.474134 -16.079802
LeftToeBase 12.674879 -0.000000 -0.000000
RightUpLeg -14.513380 -20.562193 -3.410858
RightLeg 32.322445 -0.000000 -0.000000
RightFoot -26.818208 -25.588082 9.597715
RightToeBase 1.527661 -0.000000 -0.000000
2191
root -3.818380 36.409997 1.661850 11.790926 43.622417 18.408848
Spine 13.274356 -0.762350 -11.075732
Head -3.894559 -0.885558 2.830141
LeftShoulder 6.130290 -19.245012 8.563423
LeftArm 17.389322 -15.742637 -40.936949
LeftForeArm 4.180636 -0.000000 52.548462
LeftHand -11.771657 -0.000000 53.175313
LeftHandThumb1 -26.253704 0.000000 33.147579
RightShoulder -2.407845 -14.772640 -0.917881
RightArm 8.346540 -10.405362 50.952334
RightForeArm -169.181961 0.000000 29.394780
RightHand 0.206813 0.000000 4.437741
RightHandThumb1 -24.326973 -0.000000 -32.862282
LeftUpLeg -77.586355 39.977398 0.926728
LeftLeg 48.386279 -0.000000 -0.000000
LeftFoot -12.490030 8.384773 -16.300509
LeftToeBase 12.838739 -0.000000 -0.000000
RightUpLeg -14.537999 -20.508225 -3.367294
RightLeg 32.274508 -0.000000 -0.000000
RightFoot -26.833250 -25.621080 9.629492
RightToeBase 1.527904 -0.000000 -0.000000
2192
root -3.801755 36.411767 1.658896 11.814173 43.616981 18.355226
Spine 13.085325 -0.847544 -11.032695
Head -3.808905 -0.910792 2.811987
LeftShoulder 6.081692 -19.160961 8.582675
LeftArm 17.379401 -15.636668 -40.971838
LeftForeArm 4.229483 0.000000 52.567565
LeftHand -11.842313 0.000000 53.374642
LeftHandThumb1 -26.253704 0.000000 33.147579
RightShoulder -2.450983 -14.833402 -0.880339
RightArm 8.303794 -10.447692 50.924681
RightForeArm -168.949736 0.000000 29.558149
RightHand 0.262742 -0.000000 4.696114
RightHandThumb1 -24.326973 -0.000000 -32.862282
LeftUpLeg -77.660699 39.869722 0.832551
LeftLeg 50.106304 -0.000000 -0.000000
LeftFoot -12.898524 9.349760 -16.473005
LeftToeBase 13.110135 -0.000000 -0.000000
RightUpLeg -14.562686 -20.493911 -3.334301
RightLeg 32.224044 -0.000000 -0.000000
RightFoot -26.820805 -25.640988 9.580113
RightToeBase 1.581440 -0.000000 -0.000000
2193
root -3.785599 36.413275 1.656014 11.811844 43.610107 18.275846
Spine 12.921084 -0.918195 -10.962423
Head -3.792403 -0.922667 2.814963
LeftShoulder 6.035152 -19.105285 8.584364
LeftArm 17.365632 -15.520178 -40.996902
LeftForeArm 4.300822 -0.000000 52.589140
LeftHand -11.908289 -0.000000 53.486746
LeftHandThumb1 -26.253704 0.000000 33.147579
RightShoulder -2.517106 -14.890383 -0.847668
RightArm 8.321731 -10.540810 50.867405
RightForeArm -168.779242 -0.000000 29.654071
RightHand 0.264835 0.000000 4.790027
RightHandThumb1 -24.326973 -0.000000 -32.862282
LeftUpLeg -77.643318 39.743905 0.844733
LeftLeg 51.906896 -0.000000 -0.000000
LeftFoot -13.387467 10.227523 -16.761940
LeftToeBase 13.358882 -0.000000 -0.000000
RightUpLeg -14.579027 -20.483728 -3.286969
RightLeg 32.178269 -0.000000 -0.000000
RightFoot -26.804977 -25.632718 9.553745
RightToeBase 1.620439 -0.000000 -0.000000
2194
root -3.770137 36.413662 1.652642 11.819794 43.606469 18.202816
Spine 12.756890 -0.964283 -10.893989
Head -3.784977 -0.910955 2.880973
LeftShoulder 6.017312 -19.057312 8.596777
LeftArm 17.340550 -15.378917 -41.022475
LeftForeArm 4.214569 -0.000000 52.617869
LeftHand -11.827075 -0.000000 53.633357
LeftHandThumb1 -26.253704 0.000000 33.147579
RightShoulder -2.595548 -14.950431 -0.812281
RightArm 8.314111 -10.657701 50.829182
RightForeArm -168.603843 -0.000000 29.770887
RightHand 0.213116 -0.000000 4.718480
RightHandThumb1 -24.326973 -0.000000 -32.862282
LeftUpLeg -77.722255 39.641529 0.660246
LeftLeg 53.721419 -0.000000 -0.000000
LeftFoot -13.852441 11.309190 -16.761120
LeftToeBase 13.729137 -0.000000 -0.000000
RightUpLeg -14.614252 -20.494464 -3.241894
RightLeg 32.151550 -0.000000 -0.000000
RightFoot -26.816246 -25.602246 9.550770
RightToeBase 1.679290 -0.000000 -0.000000
2195
root -3.753774 36.415119 1.647555 11.840874 43.608558 18.138765
Spine 12.585658 -1.021884 -10.824696
Head -3.822887 -1.005497 2.836666
LeftShoulder 5.983139 -19.002685 8.605078
LeftArm 17.328556 -15.252510 -41.060188
LeftForeArm 4.143847 -0.000000 52.656138
LeftHand -11.799642 -0.000000 53.681290
LeftHandThumb1 -26.253704 0.000000 33.147579
RightShoulder -2.650233 -15.021911 -0.774285
RightArm 8.303883 -10.759313 50.789422
RightForeArm -168.607640 -0.000000 29.884022
RightHand 0.230812 -0.000000 4.352467
RightHandThumb1 -24.326973 -0.000000 -32.862282
LeftUpLeg -77.717692 39.513080 0.574086
LeftLeg 55.605320 -0.000000 -0.000000
LeftFoot -14.215452 12.136421 -16.970832
LeftToeBase 13.757568 -0.000000 -0.000000
RightUpLeg -14.676301 -20.562844 -3.198610
RightLeg 32.158743 -0.000000 -0.000000
RightFoot -26.792555 -25.549555 9.507713
RightToeBase 1.692855 -0.000000 -0.000000
2196
root -3.737101 36.414728 1.642631 11.813054 43.600978 18.057964
Spine 12.466626 -1.054673 -10.749010
Head -3.847161 -1.060079 2.892545
LeftShoulder 5.973189 -18.966430 8.640530
LeftArm 17.327534 -15.232639 -41.213490
LeftForeArm 4.315573 0.000000 52.668864
LeftHand -11.825310 0.000000 53.707434
LeftHandThumb1 -26.253704 0.000000 33.147579
RightShoulder -2.696881 -15.089046 -0.755152
RightArm 8.324977 -10.837771 50.767086
RightForeArm -168.709583 -0.000000 29.914081
RightHand 0.281690 0.000000 4.513529
RightHandThumb1 -24.326973 -0.000000 -32.862282
LeftUpLeg -77.638902 39.402150 0.520358
LeftLeg 57.533086 -0.000000 -0.000000
LeftFoot -14.480339 12.842707 -16.963835
LeftToeBase 13.917795 -0.000000 -0.000000
RightUpLeg -14.682547 -20.597268 -3.162340
RightLeg 32.135533 -0.000000 -0.000000
RightFoot -26.783383 -25.493600 9.493913
RightToeBase 1.666157 -0.000000 -0.000000
2197
root -3.721359 36.416255 1.638794 11.780499 43.584080 17.963663
Spine 12.342369 -1.085682 -10.672024
Head -3.895378 -1.078809 2.963427
LeftShoulder 5.978002 -18.928342 8.631596
LeftArm 17.253983 -15.064500 -41.142417
LeftForeArm 4.211538 -0.000000 52.719731
LeftHand -11.814045 -0.000000 53.821897
LeftHandThumb1 -26.253704 0.000000 33.147579
RightShoulder -2.728362 -15.152997 -0.715569
RightArm 8.338186 -11.001695 50.720783
RightForeArm -168.794505 -0.000000 29.949097
RightHand 0.205241 -0.000000 4.387750
RightHandThumb1 -24.326973 -0.000000 -32.862282
LeftUpLeg -77.590791 39.318765 0.415672
LeftLeg 59.541963 -0.000000 -0.000000
LeftFoot -14.731921 13.467269 -17.192039
LeftToeBase 14.191499 -0.000000 -0.000000
RightUpLeg -14.686709 -20.611118 -3.115669
RightLeg 32.094342 -0.000000 -0.000000
RightFoot -26.751887 -25.444571 9.464817
RightToeBase 1.654493 -0.000000 -0.000000
2198
root -3.705448 36.413401 1.635450 11.717278 43.570766 17.821844
Spine 12.216111 -1.119399 -10.548226
Head -3.952248 -1.091732 3.019973
LeftShoulder 5.968481 -18.892516 8.650374
LeftArm 17.202063 -15.073791 -41.277749
LeftForeArm 4.319563 -0.000000 52.797927
LeftHand -11.782463 -0.000000 53.751513
LeftHandThumb1 -26.253704 0.000000 33.147579
RightShoulder -2.764285 -15.199109 -0.699241
RightArm 8.350734 -11.142546 50.686572
RightForeArm -168.894494 -0.000000 29.957273
RightHand 0.175430 0.000000 4.036383
RightHandThumb1 -24.326973 -0.000000 -32.862282
LeftUpLeg -77.546235 39.250958 0.343571
LeftLeg 61.637521 -0.000000 -0.000000
LeftFoot -14.822398 13.880970 -17.336539
LeftToeBase 14.475585 -0.000000 -0.000000
RightUpLeg -14.698596 -20.642599 -3.030310
RightLeg 32.064850 -0.000000 -0.000000
RightFoot -26.741201 -25.385614 9.416389
RightToeBase 1.689248 -0.000000 -0.000000
